<svg xmlns="http://www.w3.org/2000/svg" width="91.469" height="91.469" viewBox="0 0 91.469 91.469">
  <g id="Group_3177" data-name="Group 3177" transform="translate(951.416 -300.394)">
    <g id="Group_3135" data-name="Group 3135" transform="translate(-951.416 300.394)">
      <g id="Group_3093" data-name="Group 3093" transform="translate(0.947 0.946)">
        <g id="Group_3092" data-name="Group 3092">
          <path id="Path_4311" data-name="Path 4311" d="M-860.253,346.767a44.788,44.788,0,0,1-44.788,44.79,44.789,44.789,0,0,1-44.787-44.79,44.789,44.789,0,0,1,44.787-44.786A44.788,44.788,0,0,1-860.253,346.767Z" transform="translate(949.828 -301.981)" fill="#eeeeef"/>
        </g>
      </g>
      <g id="Group_3113" data-name="Group 3113" transform="translate(7.179 5.838)">
        <g id="Group_3094" data-name="Group 3094" transform="translate(0 21.749)">
          <path id="Path_4312" data-name="Path 4312" d="M-937.859,351.869l-.014-.007a2.717,2.717,0,0,1-1.171-3.741,2.9,2.9,0,0,1,1.375-1.4.456.456,0,0,1,.414,0,.458.458,0,0,1,.19.628.47.47,0,0,1-.211.216,2.016,2.016,0,0,0-1.01.945,1.805,1.805,0,0,0,.852,2.447l.014.007a1.8,1.8,0,0,0,2.482-.758,1.982,1.982,0,0,0,.163-1.443.451.451,0,0,1,.036-.305.449.449,0,0,1,.587-.209.441.441,0,0,1,.226.289,2.834,2.834,0,0,1-.259,2.085A2.7,2.7,0,0,1-937.859,351.869Z" transform="translate(939.372 -346.673)" fill="#003972"/>
        </g>
        <g id="Group_3095" data-name="Group 3095" transform="translate(2.239 17.071)">
          <path id="Path_4313" data-name="Path 4313" d="M-931.826,344.745l-3.587-2.458a.469.469,0,0,1-.114-.663l1.79-2.612a.425.425,0,0,1,.584-.117.419.419,0,0,1,.1.587l-1.522,2.22,1.134.777,1.323-1.931a.428.428,0,0,1,.591-.114.419.419,0,0,1,.094.584l-1.323,1.932,1.17.8,1.543-2.252a.425.425,0,0,1,.584-.119.42.42,0,0,1,.1.588l-1.812,2.644A.468.468,0,0,1-931.826,344.745Z" transform="translate(935.616 -338.825)" fill="#003972"/>
        </g>
        <g id="Group_3096" data-name="Group 3096" transform="translate(5.402 13.206)">
          <path id="Path_4314" data-name="Path 4314" d="M-930.154,335.283a.468.468,0,0,1-.026-.672l1.3-1.448a2.235,2.235,0,0,1,1.443-.818,1.564,1.564,0,0,1,1.147.425l.012.01a1.572,1.572,0,0,1,.348,1.974l1.645.075a.53.53,0,0,1,.368.12.447.447,0,0,1,.014.63.55.55,0,0,1-.492.186l-2.1-.107-.8.9,1.055.947a.464.464,0,0,1,.026.661.467.467,0,0,1-.664.052Zm3.175-.321c.457-.511.489-1.066.09-1.424l-.01-.01c-.421-.377-.932-.271-1.4.256l-.93,1.037,1.32,1.184Z" transform="translate(930.31 -332.342)" fill="#003972"/>
        </g>
        <g id="Group_3097" data-name="Group 3097" transform="translate(9.015 9.119)">
          <path id="Path_4315" data-name="Path 4315" d="M-922.53,327.743l-1,.866a.436.436,0,0,1-.617-.036.435.435,0,0,1,.054-.615l2.736-2.366a.434.434,0,0,1,.61.04.435.435,0,0,1-.048.61l-1.006.87,2.617,3.025a.471.471,0,0,1-.064.663.471.471,0,0,1-.666-.033Z" transform="translate(924.25 -325.485)" fill="#003972"/>
        </g>
        <g id="Group_3098" data-name="Group 3098" transform="translate(13.326 7.925)">
          <path id="Path_4316" data-name="Path 4316" d="M-916.975,324.231a.467.467,0,0,1,.123-.656.464.464,0,0,1,.653.1l2.593,3.6a.466.466,0,0,1-.115.652.468.468,0,0,1-.661-.091Z" transform="translate(917.06 -323.482)" fill="#003972"/>
        </g>
        <g id="Group_3099" data-name="Group 3099" transform="translate(15.327 4.978)">
          <path id="Path_4317" data-name="Path 4317" d="M-913.644,320.869a.468.468,0,0,1,.175-.649l2.731-1.618a.428.428,0,0,1,.591.141.427.427,0,0,1-.159.585l-2.322,1.378.737,1.238,2.02-1.2a.429.429,0,0,1,.591.142.427.427,0,0,1-.159.584l-2.02,1.2.883,1.486a.464.464,0,0,1-.173.637.468.468,0,0,1-.65-.15Z" transform="translate(913.711 -318.539)" fill="#003972"/>
        </g>
        <g id="Group_3100" data-name="Group 3100" transform="translate(19.845 4.065)">
          <path id="Path_4318" data-name="Path 4318" d="M-906.1,317.679a.467.467,0,0,1,.237-.623.465.465,0,0,1,.627.21l1.912,4.006a.465.465,0,0,1-.229.62.467.467,0,0,1-.634-.207Z" transform="translate(906.146 -317.007)" fill="#003972"/>
        </g>
        <g id="Group_3101" data-name="Group 3101" transform="translate(22.082 1.995)">
          <path id="Path_4319" data-name="Path 4319" d="M-900.862,319.346l-1.509-4.077a.468.468,0,0,1,.29-.606l2.967-1.1a.426.426,0,0,1,.545.241.421.421,0,0,1-.257.538l-2.524.936.477,1.288,2.2-.814a.427.427,0,0,1,.548.248.42.42,0,0,1-.259.531l-2.2.813.493,1.332,2.559-.949a.425.425,0,0,1,.545.241.42.42,0,0,1-.257.538l-3,1.114A.468.468,0,0,1-900.862,319.346Z" transform="translate(902.401 -313.535)" fill="#003972"/>
        </g>
        <g id="Group_3102" data-name="Group 3102" transform="translate(27.208 0.954)">
          <path id="Path_4320" data-name="Path 4320" d="M-893.809,312.761a.467.467,0,0,1,.371-.56l1.513-.33a2.683,2.683,0,0,1,3.389,1.951l0,.015a2.689,2.689,0,0,1-2.263,3.2l-1.512.33a.469.469,0,0,1-.572-.355Zm2.832,3.448a1.748,1.748,0,0,0,1.466-2.143l0-.015a1.764,1.764,0,0,0-2.231-1.354l-1.049.229.767,3.512Z" transform="translate(893.82 -311.787)" fill="#003972"/>
        </g>
        <g id="Group_3103" data-name="Group 3103" transform="translate(35.584)">
          <path id="Path_4321" data-name="Path 4321" d="M-879.794,310.708a.467.467,0,0,1,.471-.479l1.663-.041c1.275-.032,2.086.651,2.112,1.714v.016c.029,1.184-.935,1.827-2.133,1.856l-1.08.027.032,1.273a.465.465,0,0,1-.463.472.466.466,0,0,1-.493-.448Zm2.123,2.228c.724-.018,1.165-.421,1.151-.972v-.015c-.015-.619-.482-.931-1.2-.913l-1.111.027.046,1.9Z" transform="translate(879.794 -310.187)" fill="#003972"/>
        </g>
        <g id="Group_3104" data-name="Group 3104" transform="translate(40.467 0.054)">
          <path id="Path_4322" data-name="Path 4322" d="M-871.159,310.7a.468.468,0,0,1,.529-.415l1.934.2a2.238,2.238,0,0,1,1.508.689,1.568,1.568,0,0,1,.33,1.18v.016a1.573,1.573,0,0,1-1.395,1.44l.9,1.377a.532.532,0,0,1,.118.37.445.445,0,0,1-.5.379.55.55,0,0,1-.439-.288l-1.144-1.767-1.2-.126-.148,1.41a.466.466,0,0,1-.52.41.467.467,0,0,1-.432-.508Zm2.121,2.384c.68.072,1.149-.228,1.205-.762l0-.014c.058-.563-.327-.914-1.031-.988l-1.385-.144-.185,1.763Z" transform="translate(871.619 -310.278)" fill="#003972"/>
        </g>
        <g id="Group_3105" data-name="Group 3105" transform="translate(45.881 1.185)">
          <path id="Path_4323" data-name="Path 4323" d="M-862.466,314.218l0-.014a2.752,2.752,0,0,1,3.452-1.924,2.722,2.722,0,0,1,2.058,3.345l0,.014a2.752,2.752,0,0,1-3.452,1.924A2.723,2.723,0,0,1-862.466,314.218Zm4.536,1.184,0-.015a1.836,1.836,0,0,0-1.315-2.286,1.811,1.811,0,0,0-2.247,1.341l0,.014a1.827,1.827,0,0,0,1.316,2.278A1.8,1.8,0,0,0-857.93,315.4Z" transform="translate(862.556 -312.176)" fill="#003972"/>
        </g>
        <g id="Group_3106" data-name="Group 3106" transform="translate(52.04 3.313)">
          <path id="Path_4324" data-name="Path 4324" d="M-852.014,317.4l.007-.014A2.714,2.714,0,0,1-848.346,316a2.911,2.911,0,0,1,1.477,1.289.46.46,0,0,1,.024.413.459.459,0,0,1-.615.228.48.48,0,0,1-.228-.2,2.009,2.009,0,0,0-1-.952,1.8,1.8,0,0,0-2.39,1l-.005.014a1.8,1.8,0,0,0,.9,2.432,1.985,1.985,0,0,0,1.45.077.446.446,0,0,1,.306.017.45.45,0,0,1,.243.574.443.443,0,0,1-.276.243,2.827,2.827,0,0,1-2.094-.134A2.7,2.7,0,0,1-852.014,317.4Z" transform="translate(852.245 -315.745)" fill="#003972"/>
        </g>
        <g id="Group_3107" data-name="Group 3107" transform="translate(56.42 5.286)">
          <path id="Path_4325" data-name="Path 4325" d="M-844.844,323l2.244-3.724a.468.468,0,0,1,.655-.151l2.713,1.635a.425.425,0,0,1,.151.576.42.42,0,0,1-.581.135l-2.306-1.39-.709,1.177,2.006,1.208a.427.427,0,0,1,.148.583.418.418,0,0,1-.576.128l-2.007-1.208-.733,1.215,2.34,1.41a.424.424,0,0,1,.152.576.42.42,0,0,1-.581.134l-2.746-1.655A.468.468,0,0,1-844.844,323Z" transform="translate(844.912 -319.054)" fill="#003972"/>
        </g>
        <g id="Group_3108" data-name="Group 3108" transform="translate(60.521 8.489)">
          <path id="Path_4326" data-name="Path 4326" d="M-838.027,327.53a.432.432,0,0,1,.072-.394.439.439,0,0,1,.621-.061.449.449,0,0,1,.168.238,2.41,2.41,0,0,0,.866,1.367c.464.364.926.381,1.169.072l.009-.011c.233-.3.187-.592-.469-1.394-.744-.928-1.053-1.593-.453-2.359l.01-.012a1.649,1.649,0,0,1,2.408-.06,3.064,3.064,0,0,1,1.056,1.452.414.414,0,0,1-.063.42.439.439,0,0,1-.62.06.478.478,0,0,1-.154-.207,2.311,2.311,0,0,0-.739-1.087c-.44-.345-.868-.327-1.084-.053l-.008.012c-.252.32-.168.617.509,1.454.739.923.957,1.6.417,2.292l-.01.013a1.679,1.679,0,0,1-2.5.042A3.456,3.456,0,0,1-838.027,327.53Z" transform="translate(838.046 -324.429)" fill="#003972"/>
        </g>
        <g id="Group_3109" data-name="Group 3109" transform="translate(64.088 11.689)">
          <path id="Path_4327" data-name="Path 4327" d="M-832.094,332.518a.427.427,0,0,1,.118-.383.438.438,0,0,1,.623.013.458.458,0,0,1,.14.256,2.406,2.406,0,0,0,.7,1.46c.419.417.876.488,1.152.21l.011-.011c.266-.267.256-.566-.3-1.439-.631-1.01-.861-1.706-.175-2.4l.011-.01a1.65,1.65,0,0,1,2.4.225,3.061,3.061,0,0,1,.88,1.566.419.419,0,0,1-.113.411.438.438,0,0,1-.623-.014.479.479,0,0,1-.129-.224,2.314,2.314,0,0,0-.607-1.168c-.4-.395-.825-.427-1.071-.181l-.01.011c-.287.29-.238.593.336,1.505.625,1.005.763,1.705.146,2.326l-.01.011a1.679,1.679,0,0,1-2.493-.255A3.456,3.456,0,0,1-832.094,332.518Z" transform="translate(832.101 -329.796)" fill="#003972"/>
        </g>
        <g id="Group_3110" data-name="Group 3110" transform="translate(67.138 15.004)">
          <path id="Path_4328" data-name="Path 4328" d="M-823.435,335.465a.465.465,0,0,1,.663.071.463.463,0,0,1-.046.659l-3.388,2.864a.466.466,0,0,1-.658-.065.467.467,0,0,1,.041-.665Z" transform="translate(826.984 -335.358)" fill="#003972"/>
        </g>
        <g id="Group_3111" data-name="Group 3111" transform="translate(68.432 16.904)">
          <path id="Path_4329" data-name="Path 4329" d="M-820.968,338.625a.474.474,0,0,1,.659.135l.058.082a.607.607,0,0,1,.057.565l-1.282,4.179,2.678-1.834a.46.46,0,0,1,.637.129.463.463,0,0,1-.106.647l-3.66,2.508a.457.457,0,0,1-.643-.125l-.023-.032a.607.607,0,0,1-.051-.569l1.318-4.3-2.763,1.893a.461.461,0,0,1-.637-.129.464.464,0,0,1,.1-.648Z" transform="translate(824.813 -338.545)" fill="#003972"/>
        </g>
        <g id="Group_3112" data-name="Group 3112" transform="translate(72.14 22.785)">
          <path id="Path_4330" data-name="Path 4330" d="M-817.052,348.695l.014-.007a2.731,2.731,0,0,1,3.684,1.332,3.017,3.017,0,0,1,.329,1.906.47.47,0,0,1-.256.34.469.469,0,0,1-.621-.225.516.516,0,0,1-.034-.312,2.107,2.107,0,0,0-.2-1.37,1.808,1.808,0,0,0-2.447-.774l-.014.007a1.791,1.791,0,0,0-.891,2.49,2.266,2.266,0,0,0,.934,1.008l.889-.433-.469-.965a.413.413,0,0,1,.175-.559.419.419,0,0,1,.553.206l.661,1.364a.468.468,0,0,1-.211.638l-1.27.618a.638.638,0,0,1-.675-.044,3.53,3.53,0,0,1-1.361-1.491A2.665,2.665,0,0,1-817.052,348.695Z" transform="translate(818.594 -348.411)" fill="#003972"/>
        </g>
      </g>
      <g id="Group_3115" data-name="Group 3115" transform="translate(23.025 74.318)">
        <g id="Group_3114" data-name="Group 3114">
          <path id="Path_4331" data-name="Path 4331" d="M-912.423,429.2l.009-.015a3.359,3.359,0,0,1,4.424-1.367,3.175,3.175,0,0,1,1.521,1.541.59.59,0,0,1,0,.5.533.533,0,0,1-.712.29.5.5,0,0,1-.247-.237,2.247,2.247,0,0,0-1.049-1.164,2.214,2.214,0,0,0-2.906,1.029l-.01.017a2.15,2.15,0,0,0,.818,3.061,2.31,2.31,0,0,0,1.776.175.54.54,0,0,1,.372.028.553.553,0,0,1,.286.708.537.537,0,0,1-.34.3,3.32,3.32,0,0,1-2.61-.283A3.2,3.2,0,0,1-912.423,429.2Z" transform="translate(912.909 -426.563)" fill="#003972"/>
          <path id="Path_4332" data-name="Path 4332" d="M-902.457,433.909l.007-.017a3.371,3.371,0,0,1,4.16-2.03,3.322,3.322,0,0,1,2.105,4.079l0,.019a3.208,3.208,0,0,1-4.223,2.277A3.2,3.2,0,0,1-902.457,433.909Zm5.144,1.776,0-.017a2.232,2.232,0,0,0-1.325-2.815,2.207,2.207,0,0,0-2.725,1.457l-.007.018a2.161,2.161,0,0,0,1.3,2.91A2.126,2.126,0,0,0-897.314,435.686Z" transform="translate(908.791 -428.274)" fill="#003972"/>
          <path id="Path_4333" data-name="Path 4333" d="M-889.416,434.589a.55.55,0,0,1,.622-.459l.105.021a.536.536,0,0,1,.407.389c.47,1.34.733,2.008,1.314,3.333.926-1.118,1.363-1.69,2.184-2.854a.506.506,0,0,1,.486-.255l.107.008a.548.548,0,0,1,.47.612c-.145,2.17-.219,3.255-.364,5.425a.569.569,0,0,1-.632.522.578.578,0,0,1-.531-.614l.361-3.881c-.679.9-1.035,1.336-1.781,2.2a.545.545,0,0,1-.515.23.543.543,0,0,1-.422-.361c-.476-1.03-.7-1.547-1.1-2.586l-.716,3.821a.56.56,0,0,1-.68.436.553.553,0,0,1-.451-.662C-890.1,437.784-889.872,436.719-889.416,434.589Z" transform="translate(903.885 -429.253)" fill="#003972"/>
          <path id="Path_4334" data-name="Path 4334" d="M-876.677,436.033a.543.543,0,0,1,.528-.563c.7.011,1.057.01,1.762-.01a2.128,2.128,0,0,1,2.368,2.042v.018a2.175,2.175,0,0,1-2.375,2.349c-.509.012-.764.016-1.272.013,0,.628,0,.941-.006,1.568a.567.567,0,0,1-.588.56.569.569,0,0,1-.578-.58C-876.772,439.272-876.741,438.193-876.677,436.033Zm2.294,2.806a1.166,1.166,0,0,0,1.282-1.214v-.018c-.043-.759-.565-1.125-1.342-1.1-.483.012-.725.015-1.208.013l-.009,2.338C-875.149,438.854-874.894,438.852-874.382,438.839Z" transform="translate(898.339 -429.794)" fill="#003972"/>
          <path id="Path_4335" data-name="Path 4335" d="M-867.82,440.647a49.016,49.016,0,0,0,1.667-5.612.661.661,0,0,1,.537-.551l.049-.008a.65.65,0,0,1,.674.357,48.3,48.3,0,0,0,3.354,4.8.485.485,0,0,1,.119.22.539.539,0,0,1-.42.658.6.6,0,0,1-.647-.268c-.314-.432-.467-.648-.769-1.084-1.241.244-1.865.345-3.117.5-.155.524-.236.786-.4,1.31a.561.561,0,0,1-.5.417.528.528,0,0,1-.593-.476A.577.577,0,0,1-867.82,440.647Zm3.949-2.4c-.633-.95-.937-1.431-1.517-2.4-.247,1.1-.385,1.655-.687,2.755C-865.191,438.484-864.75,438.413-863.871,438.249Z" transform="translate(894.719 -429.393)" fill="#003972"/>
          <path id="Path_4336" data-name="Path 4336" d="M-857.345,432.771a.55.55,0,0,1,.349-.692l.1-.029a.645.645,0,0,1,.605.172,34.966,34.966,0,0,0,4.275,2.991c-.566-1.493-.849-2.238-1.415-3.731a.538.538,0,0,1,.27-.7.539.539,0,0,1,.684.325c.826,2.021,1.239,3.03,2.065,5.051a.563.563,0,0,1-.329.742l-.045.018a.746.746,0,0,1-.7-.1,35.79,35.79,0,0,1-4.505-3.05l1.157,3.954a.565.565,0,0,1-.4.694.568.568,0,0,1-.712-.383C-856.507,435.93-856.786,434.877-857.345,432.771Z" transform="translate(890.475 -427.891)" fill="#003972"/>
          <path id="Path_4337" data-name="Path 4337" d="M-844.064,430.925a35.4,35.4,0,0,1-3.263-1.85.748.748,0,0,1-.271-.317.534.534,0,0,1,.255-.714.6.6,0,0,1,.6.1c1.044.662,1.583.977,2.694,1.573.153-1.261.207-1.89.272-3.136a.608.608,0,0,1,.261-.551.526.526,0,0,1,.728.21.714.714,0,0,1,.087.426c-.084,1.471-.157,2.214-.365,3.705l.964,1.789a.578.578,0,0,1-.272.785.574.574,0,0,1-.79-.23Z" transform="translate(886.55 -425.955)" fill="#003972"/>
        </g>
      </g>
      <g id="Group_3116" data-name="Group 3116" transform="translate(16.151 16.116)">
        <ellipse id="Ellipse_12" data-name="Ellipse 12" cx="29.583" cy="29.618" rx="29.583" ry="29.618" fill="#003972"/>
      </g>
      <g id="Group_3118" data-name="Group 3118" transform="translate(12.791 13.087)">
        <g id="Group_3117" data-name="Group 3117">
          <path id="Path_4338" data-name="Path 4338" d="M-897.015,322.349A32.8,32.8,0,0,0-929.958,355a32.8,32.8,0,0,0,32.943,32.646A32.8,32.8,0,0,0-864.071,355,32.8,32.8,0,0,0-897.015,322.349Zm0,63.593A31.088,31.088,0,0,1-928.242,355a31.088,31.088,0,0,1,31.227-30.946A31.088,31.088,0,0,1-865.788,355,31.088,31.088,0,0,1-897.015,385.942Z" transform="translate(929.958 -322.349)" fill="#003972"/>
        </g>
      </g>
      <g id="Group_3133" data-name="Group 3133" transform="translate(22.712 33.713)">
        <g id="Group_3122" data-name="Group 3122">
          <g id="Group_3119" data-name="Group 3119" transform="translate(0 0.297)">
            <path id="Path_4339" data-name="Path 4339" d="M-913.433,357.916h8.414V360.3h-.766a2.159,2.159,0,0,0-.884.117.719.719,0,0,0-.321.371,2.935,2.935,0,0,0-.1.97V371.3a3.5,3.5,0,0,0,.086,1,.567.567,0,0,0,.3.322,1.618,1.618,0,0,0,.779.148h.914v2.385h-8.414v-2.385h.684a2.736,2.736,0,0,0,.957-.1.662.662,0,0,0,.329-.334,2.513,2.513,0,0,0,.106-.908v-9.576a3.3,3.3,0,0,0-.106-1.056.771.771,0,0,0-.353-.389,2.161,2.161,0,0,0-.846-.1h-.77Z" transform="translate(913.433 -357.916)" fill="#fff"/>
          </g>
          <g id="Group_3120" data-name="Group 3120" transform="translate(10.119)">
            <path id="Path_4340" data-name="Path 4340" d="M-883.36,357.715l1.483,5.783-2.31.655a8.4,8.4,0,0,0-2.6-3.03,5.526,5.526,0,0,0-3.1-.961,2.842,2.842,0,0,0-1.672.433,1.2,1.2,0,0,0-.61.964,1.527,1.527,0,0,0,.556,1.125,4.921,4.921,0,0,0,2,.928l3.311.964a8.269,8.269,0,0,1,3.929,2.1,4.526,4.526,0,0,1,1.162,3.079,4.826,4.826,0,0,1-1.78,3.783,7.323,7.323,0,0,1-4.942,1.707,8.59,8.59,0,0,1-2.521-.352,9.329,9.329,0,0,1-2.4-1.18l-.544,1.236h-1.841l-1.223-6.685,2.311-.556a8.107,8.107,0,0,0,2.539,3.4,5.962,5.962,0,0,0,3.786,1.365,4.341,4.341,0,0,0,1.538-.234,1.994,1.994,0,0,0,.92-.655,1.447,1.447,0,0,0,.309-.866,1.55,1.55,0,0,0-.716-1.271,8.658,8.658,0,0,0-2.545-1.051l-2.881-.839a13.125,13.125,0,0,1-1.772-.7,6.56,6.56,0,0,1-1.717-1.069,4.4,4.4,0,0,1-.994-1.428,4.387,4.387,0,0,1-.4-1.835,4.5,4.5,0,0,1,.76-2.527,5.372,5.372,0,0,1,2.286-1.872,7.843,7.843,0,0,1,3.379-.717,7.307,7.307,0,0,1,4.04,1.161l.482-.864Z" transform="translate(896.457 -357.418)" fill="#fff"/>
          </g>
          <g id="Group_3121" data-name="Group 3121" transform="translate(26.849)">
            <path id="Path_4341" data-name="Path 4341" d="M-859.076,357.418a9.065,9.065,0,0,1,6.641,2.5,8.6,8.6,0,0,1,2.539,6.412,9.268,9.268,0,0,1-1.161,4.67,8.012,8.012,0,0,1-3.206,3.144,10.241,10.241,0,0,1-4.936,1.106,9.226,9.226,0,0,1-6.252-2.1,8.485,8.485,0,0,1-2.941-6.771,8.61,8.61,0,0,1,2.576-6.45A9.252,9.252,0,0,1-859.076,357.418Zm.049,2.743a3.777,3.777,0,0,0-3.126,1.471,7.5,7.5,0,0,0-1.457,4.781,7.23,7.23,0,0,0,1.359,4.633,3.786,3.786,0,0,0,3.1,1.458,3.765,3.765,0,0,0,3.1-1.458,7.328,7.328,0,0,0,1.372-4.658,8.91,8.91,0,0,0-.587-3.448,4.626,4.626,0,0,0-1.588-2.088A3.744,3.744,0,0,0-859.027,360.161Z" transform="translate(868.392 -357.418)" fill="#fff"/>
          </g>
        </g>
        <g id="Group_3132" data-name="Group 3132" transform="translate(0.293 21.617)">
          <g id="Group_3123" data-name="Group 3123">
            <path id="Path_4342" data-name="Path 4342" d="M-909.529,396.913a1.688,1.688,0,0,1-1.363.619,1.833,1.833,0,0,1-2.049-1.834v-.017a2.011,2.011,0,0,1,2.156-2,2.1,2.1,0,0,1,1.611.612,2.924,2.924,0,0,1,.694,2.2v.017c0,1.859-.917,3.148-2.478,3.148a2.747,2.747,0,0,1-1.851-.694l.554-.777a1.966,1.966,0,0,0,1.322.545C-909.909,398.738-909.538,397.681-909.529,396.913Zm-.041-1.273v-.017a1.093,1.093,0,0,0-1.206-1.065,1.061,1.061,0,0,0-1.148,1.074v.016a1.056,1.056,0,0,0,1.181,1.033A1.069,1.069,0,0,0-909.57,395.641Z" transform="translate(912.941 -393.683)" fill="#fff"/>
          </g>
          <g id="Group_3124" data-name="Group 3124" transform="translate(5.401)">
            <path id="Path_4343" data-name="Path 4343" d="M-903.881,396.69v-.017a2.708,2.708,0,0,1,2.527-2.991c1.512,0,2.512,1.322,2.512,2.974v.017a2.708,2.708,0,0,1-2.528,2.991C-902.89,399.664-903.881,398.342-903.881,396.69Zm3.99,0v-.017c0-1.14-.586-2.074-1.479-2.074s-1.462.909-1.462,2.057v.017c0,1.14.578,2.073,1.478,2.073S-899.891,397.822-899.891,396.69Z" transform="translate(903.881 -393.683)" fill="#fff"/>
          </g>
          <g id="Group_3125" data-name="Group 3125" transform="translate(11.379)">
            <path id="Path_4344" data-name="Path 4344" d="M-893.851,396.69v-.017a2.708,2.708,0,0,1,2.527-2.991c1.512,0,2.512,1.322,2.512,2.974v.017a2.708,2.708,0,0,1-2.527,2.991C-892.86,399.664-893.851,398.342-893.851,396.69Zm3.99,0v-.017c0-1.14-.587-2.074-1.478-2.074s-1.462.909-1.462,2.057v.017c0,1.14.578,2.073,1.478,2.073S-889.861,397.822-889.861,396.69Z" transform="translate(893.851 -393.683)" fill="#fff"/>
          </g>
          <g id="Group_3126" data-name="Group 3126" transform="translate(17.061 0.058)">
            <path id="Path_4345" data-name="Path 4345" d="M-883.064,394.813l-1.041.29-.215-.826,1.561-.5h.7V399.6h-1.008Z" transform="translate(884.319 -393.78)" fill="#fff"/>
          </g>
          <g id="Group_3127" data-name="Group 3127" transform="translate(20.72 1.519)">
            <path id="Path_4346" data-name="Path 4346" d="M-878.182,396.232h1.1v1.132h-1.1Zm0,3.222h1.1v1.14h-1.1Z" transform="translate(878.182 -396.232)" fill="#fff"/>
          </g>
          <g id="Group_3128" data-name="Group 3128" transform="translate(22.826 0.017)">
            <path id="Path_4347" data-name="Path 4347" d="M-874.649,398.775l1.991-1.694c.793-.677,1.082-1.041,1.082-1.561a.867.867,0,0,0-.933-.9c-.529,0-.892.289-1.33.867l-.727-.57a2.378,2.378,0,0,1,2.132-1.206,1.732,1.732,0,0,1,1.908,1.726v.017c0,.908-.479,1.4-1.5,2.238l-1.19.991h2.75v.892h-4.179Z" transform="translate(874.649 -393.711)" fill="#fff"/>
          </g>
          <g id="Group_3129" data-name="Group 3129" transform="translate(27.953)">
            <path id="Path_4348" data-name="Path 4348" d="M-866.047,396.69v-.017a2.708,2.708,0,0,1,2.528-2.991c1.512,0,2.511,1.322,2.511,2.974v.017a2.708,2.708,0,0,1-2.527,2.991C-865.055,399.664-866.047,398.342-866.047,396.69Zm3.99,0v-.017c0-1.14-.586-2.074-1.478-2.074s-1.462.909-1.462,2.057v.017c0,1.14.578,2.073,1.478,2.073S-862.057,397.822-862.057,396.69Z" transform="translate(866.047 -393.683)" fill="#fff"/>
          </g>
          <g id="Group_3130" data-name="Group 3130" transform="translate(33.933)">
            <path id="Path_4349" data-name="Path 4349" d="M-856.016,396.69v-.017a2.708,2.708,0,0,1,2.527-2.991c1.512,0,2.511,1.322,2.511,2.974v.017a2.708,2.708,0,0,1-2.527,2.991C-855.025,399.664-856.016,398.342-856.016,396.69Zm3.99,0v-.017c0-1.14-.586-2.074-1.478-2.074s-1.462.909-1.462,2.057v.017c0,1.14.578,2.073,1.478,2.073S-852.026,397.822-852.026,396.69Z" transform="translate(856.016 -393.683)" fill="#fff"/>
          </g>
          <g id="Group_3131" data-name="Group 3131" transform="translate(39.837 0.017)">
            <path id="Path_4350" data-name="Path 4350" d="M-846.111,398v-.016a1.459,1.459,0,0,1,1.041-1.4,1.389,1.389,0,0,1-.843-1.289v-.017c0-.884.85-1.561,2.008-1.561s2.007.669,2.007,1.561v.017a1.389,1.389,0,0,1-.843,1.289,1.481,1.481,0,0,1,1.041,1.388v.017c0,1.032-.941,1.677-2.2,1.677S-846.111,399-846.111,398Zm3.421-.057v-.017c0-.529-.529-.876-1.214-.876s-1.206.347-1.206.876v.017c0,.47.446.867,1.206.867S-842.691,398.419-842.691,397.941Zm-.182-2.553v-.017c0-.446-.413-.81-1.032-.81s-1.033.364-1.033.8v.016a.925.925,0,0,0,1.033.86A.924.924,0,0,0-842.872,395.388Z" transform="translate(846.111 -393.711)" fill="#fff"/>
          </g>
        </g>
      </g>
      <g id="Group_3134" data-name="Group 3134">
        <path id="Path_4351" data-name="Path 4351" d="M-905.682,391.863a45.787,45.787,0,0,1-45.734-45.736,45.785,45.785,0,0,1,45.734-45.733,45.785,45.785,0,0,1,45.735,45.733A45.787,45.787,0,0,1-905.682,391.863Zm0-89.586a43.894,43.894,0,0,0-43.838,43.85,43.9,43.9,0,0,0,43.838,43.854,43.9,43.9,0,0,0,43.839-43.854A43.894,43.894,0,0,0-905.682,302.276Z" transform="translate(951.416 -300.394)" fill="#003972"/>
      </g>
    </g>
  </g>
</svg>
