<svg xmlns="http://www.w3.org/2000/svg" width="19.202" height="17.737" viewBox="0 0 19.202 17.737">
  <g id="Group_3008" data-name="Group 3008" transform="translate(0 0)">
    <path id="Path_186" data-name="Path 186" d="M1452.179,716.917V721.6a.681.681,0,0,0,.2.48l2.328,2.339a.687.687,0,0,0,.952,0,.681.681,0,0,0,0-.957l-2.133-2.143v-4.4a.673.673,0,1,0-1.347,0Z" transform="translate(-1442.577 -712.459)" fill="#00b0cb"/>
    <path id="Path_187" data-name="Path 187" d="M1452.256,716.934v4.682a.681.681,0,0,0,.2.48l2.328,2.339a.688.688,0,0,0,.952,0,.681.681,0,0,0,0-.957l-2.133-2.143v-4.4a.673.673,0,1,0-1.347,0Z" transform="translate(-1442.616 -712.468)" fill="#00b0cb"/>
    <path id="Path_188" data-name="Path 188" d="M1443.029,708.587a8.7,8.7,0,0,0-2.414.348l-.034.009c-.045.013-.091.023-.135.036l0,.012a.672.672,0,0,0,.42,1.265l0,0a7.432,7.432,0,0,1,2.159-.322,7.522,7.522,0,1,1-6.918,4.663l.724,1.4a.613.613,0,1,0,1.087-.568c-1.465-2.831-1.465-2.831-1.684-2.915s-.215-.084-3.189,1.047a.617.617,0,0,0-.355.356h0a.621.621,0,0,0,0,.437.611.611,0,0,0,.789.358l1.331-.506a8.821,8.821,0,1,0,8.214-5.624Z" transform="translate(-1432.654 -708.587)" fill="#00b0cb"/>
  </g>
</svg>
