<svg id="Layer_1" data-name="Layer 1" xmlns="http://www.w3.org/2000/svg" viewBox="0 0 444.81 93.15"><defs><style>.cls-1{fill:#fff;}.cls-2{fill:#fdb630;}.cls-3{fill:#06bcd4;}.cls-4{fill:#ef433f;}.cls-5{fill:#d2d2d4;}</style></defs><title>Ecotech Logos for web</title><path class="cls-1" d="M146.24,59.87c-12.73,0-22.13-8.93-22.13-21.89v-.16c0-12.09,8.61-22,20.94-22,14.15,0,20.39,11.62,20.39,20.39a5.48,5.48,0,0,1-5.61,5.77H136c1.18,5.45,5,8.3,10.35,8.3a13.87,13.87,0,0,0,8.54-2.85,4.49,4.49,0,0,1,2.92-1,4.59,4.59,0,0,1,4.66,4.75,4.7,4.7,0,0,1-1.58,3.55A21.93,21.93,0,0,1,146.24,59.87ZM154,34.42c-.71-5.37-3.87-9-8.93-9s-8.22,3.56-9.17,9Z"/><path class="cls-1" d="M174.13,38v-.16a21.75,21.75,0,0,1,22.21-22c6.4,0,10.9,1.74,14.46,4.74A5.39,5.39,0,0,1,207.24,30a5.71,5.71,0,0,1-3.48-1.19,11.42,11.42,0,0,0-7.5-2.69c-6,0-10.28,5.3-10.28,11.54v.16c0,6.48,4.19,11.7,10.75,11.7a12.15,12.15,0,0,0,7.9-2.93,5.65,5.65,0,0,1,3.24-1.1,5.1,5.1,0,0,1,3.32,8.93c-3.55,3.24-8.06,5.45-15,5.45A21.63,21.63,0,0,1,174.13,38Z"/><path class="cls-1" d="M219.65,38v-.16c0-12.17,9.8-22,23-22s22.84,9.72,22.84,21.89v.16c0,12.17-9.8,22-23,22S219.65,50.15,219.65,38Zm34,0v-.16c0-6.24-4.5-11.7-11.14-11.7-6.88,0-11,5.3-11,11.54v.16c0,6.24,4.51,11.7,11.14,11.7C249.52,49.52,253.63,44.22,253.63,38Z"/><path class="cls-1" d="M277.73,46.91V26.84h-.4a5.14,5.14,0,0,1,0-10.28h.4V6.76a6,6,0,0,1,12,0v9.8H295a5.14,5.14,0,0,1,0,10.28h-5.3V44.93c0,2.77,1.19,4.11,3.87,4.11C294,49,294.8,49,295,49a5,5,0,0,1,5,5,4.9,4.9,0,0,1-3.09,4.51,17.67,17.67,0,0,1-6.87,1.18C282.71,59.63,277.73,56.71,277.73,46.91Z"/><path class="cls-1" d="M329,59.87c-12.73,0-22.13-8.93-22.13-21.89v-.16c0-12.09,8.61-22,20.94-22,14.15,0,20.39,11.62,20.39,20.39a5.48,5.48,0,0,1-5.61,5.77H318.82c1.19,5.45,5,8.3,10.35,8.3a13.87,13.87,0,0,0,8.54-2.85,4.5,4.5,0,0,1,2.93-1,4.6,4.6,0,0,1,4.66,4.75,4.7,4.7,0,0,1-1.58,3.55A22,22,0,0,1,329,59.87Zm7.74-25.45c-.71-5.37-3.87-9-8.93-9s-8.22,3.56-9.17,9Z"/><path class="cls-1" d="M356.91,38v-.16a21.75,21.75,0,0,1,22.21-22c6.4,0,10.9,1.74,14.46,4.74A5.39,5.39,0,0,1,390,30a5.65,5.65,0,0,1-3.47-1.19A11.47,11.47,0,0,0,379,26.12c-6,0-10.27,5.3-10.27,11.54v.16c0,6.48,4.18,11.7,10.74,11.7a12.18,12.18,0,0,0,7.91-2.93,5.6,5.6,0,0,1,3.24-1.1,5.05,5.05,0,0,1,5,5.13,5.11,5.11,0,0,1-1.73,3.8c-3.56,3.24-8.06,5.45-15,5.45A21.63,21.63,0,0,1,356.91,38Z"/><path class="cls-1" d="M405.67,6.76a6,6,0,0,1,12,0v13a16.82,16.82,0,0,1,12.41-4c9.06.76,14.38,6,14.38,15.73V53.39a6,6,0,1,1-12,0V35.29c0-5.69-2.69-8.61-7.27-8.61s-7.51,2.92-7.51,8.61v18.1a6,6,0,1,1-12,0Z"/><path class="cls-1" d="M37.75,41.34V29.92a3.08,3.08,0,0,0-3.08-3.08h0a3.08,3.08,0,0,0-3.08,3.08V65.08a3.08,3.08,0,0,0,3.08,3.08h0a3.08,3.08,0,0,0,3.08-3.08V53.66a3.07,3.07,0,0,1,3.08-3.08h11.7a3.07,3.07,0,0,0,3.08-3.08h0a3.07,3.07,0,0,0-3.08-3.08H40.83A3.07,3.07,0,0,1,37.75,41.34Z"/><path class="cls-1" d="M58.71,33H47A3.07,3.07,0,0,1,43.9,29.9,3.06,3.06,0,0,1,47,26.84H58.71a3.07,3.07,0,1,1,0,6.13Z"/><path class="cls-1" d="M58.71,68.16H47a3,3,0,0,1-2.17-.9A3.07,3.07,0,0,1,47,62H58.71a3.07,3.07,0,1,1,0,6.14Z"/><path class="cls-2" d="M81.05,27.7a39.43,39.43,0,0,1,4.5,14.2,3.06,3.06,0,0,0,3,2.68h0a3.07,3.07,0,0,0,3.15-3.43A45.81,45.81,0,0,0,30.38,3.55,3.08,3.08,0,0,0,28.74,7.9h0a3.1,3.1,0,0,0,3.79,1.42A39.72,39.72,0,0,1,81.05,27.7Z"/><path class="cls-3" d="M11.27,65.44A39.73,39.73,0,0,1,22.44,14.77a3.08,3.08,0,0,0,.89-3.94h0a3.07,3.07,0,0,0-4.54-1,45.81,45.81,0,0,0-2,71.93A3.07,3.07,0,0,0,21.39,81h0a3.07,3.07,0,0,0-.63-4A39.26,39.26,0,0,1,11.27,65.44Z"/><path class="cls-4" d="M65,81.46A39.63,39.63,0,0,1,30.5,83a3.09,3.09,0,0,0-3.86,1.21h0A3.08,3.08,0,0,0,28,88.64,45.78,45.78,0,0,0,91.31,54.32a3.09,3.09,0,0,0-3-3.58h0a3.09,3.09,0,0,0-3.13,2.58A39.59,39.59,0,0,1,65,81.46Z"/><path class="cls-5" d="M124.11,77.64a1.38,1.38,0,0,1,1.4-1.41h4.86c3.72,0,6,2.11,6,5.31v0c0,3.56-2.86,5.42-6.36,5.42H126.9v3.84a1.4,1.4,0,0,1-2.79,0Zm6,6.85c2.11,0,3.42-1.18,3.42-2.84v0c0-1.86-1.34-2.84-3.42-2.84H126.9v5.72Z"/><path class="cls-5" d="M136.64,90.3l5.9-13.16A1.76,1.76,0,0,1,144.22,76h.13A1.74,1.74,0,0,1,146,77.14l5.9,13.16a1.17,1.17,0,0,1,.16.59,1.31,1.31,0,0,1-1.31,1.34,1.44,1.44,0,0,1-1.37-1l-1.29-3h-7.72L139,91.35a1.35,1.35,0,0,1-1.29.88,1.28,1.28,0,0,1-1.3-1.29A1.37,1.37,0,0,1,136.64,90.3ZM147,85.81l-2.79-6.43-2.79,6.43Z"/><path class="cls-5" d="M154.79,77.5a1.4,1.4,0,0,1,2.8,0V90.85a1.4,1.4,0,0,1-2.8,0Z"/><path class="cls-5" d="M161.38,77.55a1.39,1.39,0,0,1,1.4-1.41h.3a1.74,1.74,0,0,1,1.45.82l7.95,10.28V77.48a1.37,1.37,0,0,1,2.74,0V90.83a1.35,1.35,0,0,1-1.36,1.38h-.11a1.74,1.74,0,0,1-1.45-.84l-8.18-10.58V90.87a1.37,1.37,0,0,1-2.74,0Z"/><path class="cls-5" d="M182.76,78.82H178.9a1.3,1.3,0,0,1,0-2.59h10.55a1.3,1.3,0,0,1,0,2.59h-3.88v12a1.41,1.41,0,0,1-2.81,0Z"/><path class="cls-5" d="M210.06,91.91l-1.65-1.68a6.89,6.89,0,0,1-4.91,2.12c-3,0-5.19-1.8-5.19-4.54v0c0-2,1.2-3.52,3.38-4.45A5.16,5.16,0,0,1,200.37,80v0c0-2.13,1.73-4,4.56-4a3.92,3.92,0,0,1,4.23,3.83v0c0,2.09-1.39,3.34-3.48,4.13l2.7,2.75a18.28,18.28,0,0,0,1.32-2.27,1.18,1.18,0,0,1,1-.66A1.21,1.21,0,0,1,212,85a1.46,1.46,0,0,1-.16.61,24.26,24.26,0,0,1-1.73,2.79l1.77,1.77a1.26,1.26,0,0,1,.44,1A1.22,1.22,0,0,1,211,92.35,1.27,1.27,0,0,1,210.06,91.91Zm-3.26-3.29L203.25,85a3,3,0,0,0-2.13,2.66v0A2.42,2.42,0,0,0,203.78,90,4.4,4.4,0,0,0,206.8,88.62ZM206.68,80v0a1.71,1.71,0,0,0-1.79-1.79A1.82,1.82,0,0,0,203,80.07v0a3.36,3.36,0,0,0,1.2,2.36C205.82,81.88,206.68,81.15,206.68,80Z"/><path class="cls-5" d="M220.46,84.22v0A8,8,0,0,1,228.65,76a8.31,8.31,0,0,1,5.45,1.79,1.38,1.38,0,0,1,.55,1.11A1.4,1.4,0,0,1,232.42,80a5.79,5.79,0,0,0-3.79-1.43,5.35,5.35,0,0,0-5.24,5.61v0a5.35,5.35,0,0,0,5.24,5.63,5.66,5.66,0,0,0,4-1.52,1.29,1.29,0,0,1,.84-.31,1.33,1.33,0,0,1,1.32,1.29,1.35,1.35,0,0,1-.45,1,8.17,8.17,0,0,1-5.77,2.13A8,8,0,0,1,220.46,84.22Z"/><path class="cls-5" d="M236.3,84.22v0a8.31,8.31,0,0,1,16.62,0v0a8.31,8.31,0,0,1-16.62,0Zm13.69,0v0a5.45,5.45,0,0,0-5.4-5.65,5.37,5.37,0,0,0-5.36,5.61v0a5.42,5.42,0,0,0,5.4,5.63A5.34,5.34,0,0,0,250,84.22Z"/><path class="cls-5" d="M254.26,90.3l5.9-13.16A1.76,1.76,0,0,1,261.84,76H262a1.74,1.74,0,0,1,1.66,1.14l5.9,13.16a1.17,1.17,0,0,1,.16.59,1.31,1.31,0,0,1-1.31,1.34,1.44,1.44,0,0,1-1.37-1l-1.29-3H258l-1.34,3.07a1.35,1.35,0,0,1-1.29.88,1.28,1.28,0,0,1-1.3-1.29A1.37,1.37,0,0,1,254.26,90.3Zm10.39-4.49-2.79-6.43-2.79,6.43Z"/><path class="cls-5" d="M274.34,78.82h-3.86a1.3,1.3,0,0,1,0-2.59H281a1.3,1.3,0,0,1,0,2.59h-3.88v12a1.41,1.41,0,0,1-2.82,0Z"/><path class="cls-5" d="M284.85,77.5a1.4,1.4,0,0,1,2.79,0V90.85a1.4,1.4,0,0,1-2.79,0Z"/><path class="cls-5" d="M291.44,77.55a1.39,1.39,0,0,1,1.4-1.41h.3a1.76,1.76,0,0,1,1.45.82l8,10.28V77.48a1.37,1.37,0,0,1,2.74,0V90.83a1.35,1.35,0,0,1-1.36,1.38h-.11a1.77,1.77,0,0,1-1.46-.84l-8.17-10.58V90.87a1.37,1.37,0,0,1-2.74,0Z"/><path class="cls-5" d="M308.21,84.22v0A8.08,8.08,0,0,1,316.4,76a8.58,8.58,0,0,1,5.43,1.61,1.41,1.41,0,0,1,.57,1.13A1.4,1.4,0,0,1,321,80.09a1.47,1.47,0,0,1-.86-.32,6,6,0,0,0-3.86-1.25,5.38,5.38,0,0,0-5.15,5.61v0c0,3.27,2.15,5.68,5.4,5.68a6.55,6.55,0,0,0,3.84-1.2v-3h-3.14a1.22,1.22,0,0,1-1.25-1.2,1.25,1.25,0,0,1,1.25-1.23h4.43a1.4,1.4,0,0,1,1.41,1.41V88.9a1.93,1.93,0,0,1-1,1.77,10.18,10.18,0,0,1-5.65,1.72A7.88,7.88,0,0,1,308.21,84.22Z"/></svg>