<svg xmlns="http://www.w3.org/2000/svg" width="26.87" height="40.209" viewBox="0 0 26.87 40.209">
  <g id="Group_3043" data-name="Group 3043" transform="translate(1.003 1)">
    <path id="Path_4303" data-name="Path 4303" d="M656.578,218.829a17.462,17.462,0,0,0-1.538-5.359,49.389,49.389,0,0,0-3.653-6.486c-1.452-2.287-2.949-4.545-4.379-6.847a17.827,17.827,0,0,1-2.726-5.855c-.15.429-.289.863-.453,1.288a34.261,34.261,0,0,1-3.107,5.952c-1.828,2.9-3.694,5.772-5.5,8.681a23.129,23.129,0,0,0-3.1,7.306,12.172,12.172,0,0,0,11.7,14.972A11.991,11.991,0,0,0,651.3,230.4,11.811,11.811,0,0,0,656.578,218.829Z" transform="translate(-631.787 -194.282)" fill="rgba(0,0,0,0)" stroke="#505c70" stroke-linecap="round" stroke-linejoin="round" stroke-width="2"/>
    <path id="Path_4304" data-name="Path 4304" d="M645.4,236.032c-.149.012-.3,0-.45,0a8.376,8.376,0,0,1-7.75-6.355,11.476,11.476,0,0,1-.25-2" transform="translate(-632.962 -201.888)" fill="rgba(0,0,0,0)" stroke="#505c70" stroke-linecap="round" stroke-linejoin="round" stroke-width="2"/>
  </g>
</svg>
