<svg xmlns="http://www.w3.org/2000/svg" width="32.828" height="39.191" viewBox="0 0 32.828 39.191">
  <g id="Group_3052" data-name="Group 3052" transform="translate(1 0)">
    <g id="Group_3040" data-name="Group 3040" transform="translate(2.002 0)">
      <path id="Path_4292" data-name="Path 4292" d="M229,195.191a.276.276,0,0,1,.271-.271h.063a.3.3,0,0,1,.257.146l1.738,2.614,1.738-2.614a.3.3,0,0,1,.257-.146h.063a.275.275,0,0,1,.271.271v4.373a.277.277,0,0,1-.271.278.283.283,0,0,1-.278-.278v-3.629l-1.557,2.287a.27.27,0,0,1-.23.14.278.278,0,0,1-.236-.14l-1.551-2.28v3.629a.268.268,0,1,1-.535,0Z" transform="translate(-228.999 -194.698)" fill="#515c6f"/>
      <path id="Path_4293" data-name="Path 4293" d="M236.694,195.052a.318.318,0,0,1,.632,0v.09a.318.318,0,0,1-.632,0Zm.049,1.362a.27.27,0,0,1,.264-.27.267.267,0,0,1,.271.27v3.122a.261.261,0,0,1-.264.271.267.267,0,0,1-.271-.271Z" transform="translate(-230.752 -194.663)" fill="#515c6f"/>
      <path id="Path_4294" data-name="Path 4294" d="M239.061,196.808a.269.269,0,0,1,.263-.27.266.266,0,0,1,.271.27v.39a1.361,1.361,0,0,1,1.231-.7,1.313,1.313,0,0,1,1.376,1.439v2a.267.267,0,1,1-.534,0v-1.863a.958.958,0,0,0-.995-1.084,1.058,1.058,0,0,0-1.078,1.126v1.822a.261.261,0,0,1-.263.271.267.267,0,0,1-.271-.271Z" transform="translate(-231.291 -195.057)" fill="#515c6f"/>
      <path id="Path_4295" data-name="Path 4295" d="M247.059,199.279l1.661-1.466c.751-.668,1.015-1.043,1.015-1.53a.93.93,0,0,0-.98-.932,1.451,1.451,0,0,0-1.209.71.253.253,0,0,1-.452-.153.241.241,0,0,1,.055-.153,1.842,1.842,0,0,1,1.648-.9,1.4,1.4,0,0,1,1.509,1.377v.013c0,.71-.376,1.148-1.231,1.891l-1.3,1.154h2.357a.25.25,0,1,1,0,.5H247.2a.258.258,0,0,1-.279-.257A.315.315,0,0,1,247.059,199.279Z" transform="translate(-233.082 -194.683)" fill="#515c6f"/>
      <path id="Path_4296" data-name="Path 4296" d="M254.78,198.639h-2.419a.264.264,0,0,1-.278-.265.413.413,0,0,1,.1-.264l2.531-3.087a.356.356,0,0,1,.306-.167.285.285,0,0,1,.293.286v3.037h.548a.24.24,0,0,1,.237.237.232.232,0,0,1-.237.222h-.548v.924a.268.268,0,0,1-.536,0Zm0-.459v-2.51l-2.044,2.51Z" transform="translate(-234.256 -194.683)" fill="#515c6f"/>
      <path id="Path_4297" data-name="Path 4297" d="M258.5,194.9a.268.268,0,1,1,.535,0v1.87a1.361,1.361,0,0,1,1.231-.7,1.313,1.313,0,0,1,1.376,1.439v2a.268.268,0,1,1-.535,0v-1.863a.958.958,0,0,0-.994-1.084,1.058,1.058,0,0,0-1.078,1.126v1.822a.261.261,0,0,1-.263.271.267.267,0,0,1-.272-.271Z" transform="translate(-235.718 -194.632)" fill="#515c6f"/>
    </g>
    <path id="Path_4298" data-name="Path 4298" d="M241.821,204.169a15.413,15.413,0,1,0,15.414,15.414A15.414,15.414,0,0,0,241.821,204.169Z" transform="translate(-226.407 -196.804)" fill="rgba(0,0,0,0)" stroke="#505c70" stroke-miterlimit="10" stroke-width="2"/>
    <path id="Path_4299" data-name="Path 4299" d="M245.5,213.917v8.559l8.044-3.411" transform="translate(-230.755 -199.025)" fill="rgba(0,0,0,0)" stroke="#505c70" stroke-linecap="round" stroke-linejoin="round" stroke-width="3"/>
  </g>
</svg>
