<svg xmlns="http://www.w3.org/2000/svg" width="32.176" height="39.245" viewBox="0 0 32.176 39.245">
  <g id="Group_3051" data-name="Group 3051" transform="translate(1.015 0)">
    <g id="Group_3037" data-name="Group 3037" transform="translate(0 0)">
      <path id="Path_4285" data-name="Path 4285" d="M27.308,195.083a.276.276,0,0,1,.271-.271h.063a.3.3,0,0,1,.257.146l1.738,2.614,1.738-2.614a.3.3,0,0,1,.257-.146h.063a.275.275,0,0,1,.271.271v4.372a.277.277,0,0,1-.271.279.284.284,0,0,1-.278-.279v-3.629l-1.557,2.287a.27.27,0,0,1-.23.14.279.279,0,0,1-.236-.14l-1.551-2.28v3.629a.268.268,0,1,1-.535,0Z" transform="translate(-27.308 -194.749)" fill="#515c6f"/>
      <path id="Path_4286" data-name="Path 4286" d="M34.652,199.023v-.013c0-.758.626-1.161,1.536-1.161a3.822,3.822,0,0,1,1.106.153v-.125c0-.646-.4-.981-1.071-.981a2.243,2.243,0,0,0-.931.2.27.27,0,0,1-.1.02.237.237,0,0,1-.236-.229.247.247,0,0,1,.146-.223,2.833,2.833,0,0,1,1.175-.243,1.579,1.579,0,0,1,1.161.4,1.416,1.416,0,0,1,.368,1.049v1.968a.254.254,0,0,1-.257.264.247.247,0,0,1-.257-.251v-.326a1.578,1.578,0,0,1-1.3.618A1.21,1.21,0,0,1,34.652,199.023Zm2.649-.278V198.4a3.754,3.754,0,0,0-1.057-.153c-.674,0-1.049.292-1.049.744V199c0,.452.417.716.9.716A1.088,1.088,0,0,0,37.3,198.745Z" transform="translate(-28.981 -195.116)" fill="#515c6f"/>
      <path id="Path_4287" data-name="Path 4287" d="M40.049,199.688l1.175-1.446-1.105-1.355a.287.287,0,0,1-.083-.195.241.241,0,0,1,.25-.25.288.288,0,0,1,.236.125l1.036,1.314,1.029-1.307a.3.3,0,0,1,.23-.131.237.237,0,0,1,.243.242.262.262,0,0,1-.07.175l-1.12,1.369,1.168,1.432a.313.313,0,0,1,.076.194.245.245,0,0,1-.25.251.29.29,0,0,1-.236-.125L41.537,198.6l-1.084,1.376a.3.3,0,0,1-.229.132.243.243,0,0,1-.244-.244A.228.228,0,0,1,40.049,199.688Z" transform="translate(-30.194 -195.121)" fill="#515c6f"/>
      <path id="Path_4288" data-name="Path 4288" d="M47.747,198.378v-.014a1.311,1.311,0,0,1,1-1.2,1.241,1.241,0,0,1-.835-1.119v-.015a1.717,1.717,0,0,1,3.324,0v.015a1.24,1.24,0,0,1-.834,1.119,1.318,1.318,0,0,1,1,1.188v.015c0,.827-.792,1.383-1.829,1.383S47.747,199.191,47.747,198.378Zm3.1-.014v-.014c0-.542-.564-.924-1.273-.924s-1.272.382-1.272.924v.014c0,.487.473.911,1.272.911S50.848,198.857,50.848,198.364Zm-.16-2.28v-.015c0-.48-.48-.841-1.113-.841s-1.112.354-1.112.841v.015a.993.993,0,0,0,1.112.89C50.194,196.974,50.688,196.612,50.688,196.084Z" transform="translate(-31.963 -194.735)" fill="#515c6f"/>
      <path id="Path_4289" data-name="Path 4289" d="M53.506,197.262v-.015a2.267,2.267,0,0,1,2.065-2.516,2.239,2.239,0,0,1,2.044,2.5v.013a2.263,2.263,0,0,1-2.058,2.517A2.24,2.24,0,0,1,53.506,197.262Zm3.539,0v-.015c0-1.063-.584-2.016-1.488-2.016s-1.48.931-1.48,2v.013c0,1.064.584,2.017,1.494,2.017S57.045,198.325,57.045,197.262Z" transform="translate(-33.275 -194.731)" fill="#515c6f"/>
      <path id="Path_4290" data-name="Path 4290" d="M59.852,196.026v-.015a1.165,1.165,0,0,1,1.112-1.244A1.15,1.15,0,0,1,62.055,196v.013a1.164,1.164,0,0,1-1.105,1.244A1.15,1.15,0,0,1,59.852,196.026Zm1.745,0v-.015c0-.486-.292-.855-.646-.855-.382,0-.632.382-.632.842v.013c0,.487.285.856.646.856S61.6,196.491,61.6,196.026ZM60.568,199.4l3.309-4.512a.225.225,0,0,1,.174-.1.2.2,0,0,1,.2.195.214.214,0,0,1-.042.132L60.9,199.627a.224.224,0,0,1-.174.1.2.2,0,0,1-.2-.195A.212.212,0,0,1,60.568,199.4Zm2.155-.883V198.5a1.166,1.166,0,0,1,1.106-1.246,1.147,1.147,0,0,1,1.092,1.231v.015a1.107,1.107,0,1,1-2.2.013Zm1.738,0V198.5c0-.487-.285-.856-.646-.856s-.632.382-.632.841v.015c0,.486.285.854.646.854C64.211,199.355,64.461,198.98,64.461,198.514Z" transform="translate(-34.72 -194.739)" fill="#515c6f"/>
    </g>
    <g id="Group_3038" data-name="Group 3038" transform="translate(0 7.421)">
      <path id="Path_4291" data-name="Path 4291" d="M41.719,217.548a6.5,6.5,0,0,0-3.762,2.079,1.044,1.044,0,0,1-1.479.049,6.369,6.369,0,0,0-7.562-.824,1.059,1.059,0,0,1-1.571-1.183,15.734,15.734,0,0,1,14.114-11.63c.138-.022.138-.022.287-.039-.033-1.053.123-1.665.7-1.66.52.005.68.272.68,1.134,0,.17,0,.341,0,.531a15.6,15.6,0,0,1,12.29,6.958,14.957,14.957,0,0,1,1.99,4.2,1.062,1.062,0,0,1-1.6,1.182,6.374,6.374,0,0,0-7.433.761,1.086,1.086,0,0,1-1.459,0,6.472,6.472,0,0,0-3.765-1.616c-.008.113-.022.21-.022.307,0,4.249-.028,8.5.015,12.746A4.568,4.568,0,0,1,42,233.832a4.242,4.242,0,0,1-7.309-2.819.667.667,0,0,1,.65-.762.676.676,0,0,1,.757.7,2.743,2.743,0,0,0,4.477,2.153,3.374,3.374,0,0,0,1.168-2.586c.021-4.274,0-8.548,0-12.822A1.119,1.119,0,0,0,41.719,217.548Z" transform="translate(-27.308 -204.341)" fill="rgba(0,0,0,0)" stroke="#505c70" stroke-miterlimit="10" stroke-width="2"/>
    </g>
  </g>
</svg>
