<svg xmlns="http://www.w3.org/2000/svg" width="38.332" height="38.79" viewBox="0 0 38.332 38.79">
  <g id="Group_3054" data-name="Group 3054" transform="translate(1.084 1)">
    <path id="Path_4305" data-name="Path 4305" d="M125.117,422.9a2.119,2.119,0,0,0-.077,3l5.841,6.148a2.12,2.12,0,0,0,3,.077l24.74-23.5a2.12,2.12,0,0,0,.076-3l-5.845-6.152a2.114,2.114,0,0,0-2.989-.077Z" transform="translate(-123.219 -396.102)" fill="rgba(0,0,0,0)" stroke="#505c70" stroke-miterlimit="10" stroke-width="2"/>
    <path id="Path_4306" data-name="Path 4306" d="M126.606,395.328c-1.615-.108-2.118.116-2.693,1.1-1.335,2.3-1.177,6.453-.774,8.635.959,5.186,3.184,6.269,4.979,7.339.8.478,1.687.743,2.3.04l9.853-9.94a1.513,1.513,0,0,0,.239-1.595c-.191-.454-1.416-.708-1.74-1.764-.26-.846.388-1.534.614-2.116a1.305,1.305,0,0,0-.627-1.727Z" transform="translate(-122.853 -395.303)" fill="rgba(0,0,0,0)" stroke="#505c70" stroke-linecap="round" stroke-linejoin="round" stroke-width="2"/>
    <g id="Group_3045" data-name="Group 3045" transform="translate(12.383 14.537)">
      <path id="Path_4307" data-name="Path 4307" d="M139.883,424.909a.761.761,0,0,1-.762-1.271l9.631-9.3a.761.761,0,1,1,1.056,1.1l-9.631,9.3A.762.762,0,0,1,139.883,424.909Z" transform="translate(-138.889 -414.127)" fill="#515c6f"/>
    </g>
  </g>
</svg>
