<svg xmlns="http://www.w3.org/2000/svg" width="32.855" height="40.209" viewBox="0 0 32.855 40.209">
  <g id="Group_3221" data-name="Group 3221" transform="translate(0 1)">
    <g id="Group_3042" data-name="Group 3042" transform="translate(0 0.819)">
      <path id="Path_4300" data-name="Path 4300" d="M622.738,195.685a.275.275,0,1,1,.55,0V197.6H626.1v-1.918a.275.275,0,1,1,.549,0v4.379a.275.275,0,1,1-.549,0v-1.947h-2.809v1.947a.275.275,0,1,1-.55,0Z" transform="translate(-622.738 -195.357)" fill="#515c6f"/>
      <path id="Path_4301" data-name="Path 4301" d="M629.215,199.783l1.662-1.466c.751-.668,1.015-1.043,1.015-1.53a.93.93,0,0,0-.98-.932,1.452,1.452,0,0,0-1.21.71.253.253,0,0,1-.452-.153.244.244,0,0,1,.055-.154,1.843,1.843,0,0,1,1.648-.9,1.4,1.4,0,0,1,1.508,1.377v.013c0,.71-.375,1.148-1.23,1.891l-1.3,1.154h2.356a.251.251,0,1,1,0,.5h-2.927a.258.258,0,0,1-.278-.257A.316.316,0,0,1,629.215,199.783Z" transform="translate(-624.183 -195.347)" fill="#515c6f"/>
      <path id="Path_4302" data-name="Path 4302" d="M634.69,197.874v-.014a2.482,2.482,0,1,1,4.964-.014v.014a2.482,2.482,0,1,1-4.964.014Zm4.394,0v-.014a1.935,1.935,0,0,0-1.918-2.009,1.912,1.912,0,0,0-1.905,2v.014a1.935,1.935,0,0,0,1.918,2.009A1.912,1.912,0,0,0,639.084,197.874Z" transform="translate(-625.46 -195.343)" fill="#515c6f"/>
    </g>
    <g id="Group_3043" data-name="Group 3043" transform="translate(6.988 0)">
      <path id="Path_4303" data-name="Path 4303" d="M656.578,218.829a17.462,17.462,0,0,0-1.538-5.359,49.389,49.389,0,0,0-3.653-6.486c-1.452-2.287-2.949-4.545-4.379-6.847a17.827,17.827,0,0,1-2.726-5.855c-.15.429-.289.863-.453,1.288a34.261,34.261,0,0,1-3.107,5.952c-1.828,2.9-3.694,5.772-5.5,8.681a23.129,23.129,0,0,0-3.1,7.306,12.172,12.172,0,0,0,11.7,14.972A11.991,11.991,0,0,0,651.3,230.4,11.811,11.811,0,0,0,656.578,218.829Z" transform="translate(-631.787 -194.282)" fill="rgba(0,0,0,0)" stroke="#505c70" stroke-linecap="round" stroke-linejoin="round" stroke-width="2"/>
      <path id="Path_4304" data-name="Path 4304" d="M645.4,236.032c-.149.012-.3,0-.45,0a8.376,8.376,0,0,1-7.75-6.355,11.476,11.476,0,0,1-.25-2" transform="translate(-632.962 -201.888)" fill="rgba(0,0,0,0)" stroke="#505c70" stroke-linecap="round" stroke-linejoin="round" stroke-width="2"/>
    </g>
  </g>
</svg>
